<?xml version="1.0" encoding="UTF-8" standalone="no"?>
<svg
   xmlns:dc="http://purl.org/dc/elements/1.1/"
   xmlns:cc="http://creativecommons.org/ns#"
   xmlns:rdf="http://www.w3.org/1999/02/22-rdf-syntax-ns#"
   xmlns:svg="http://www.w3.org/2000/svg"
   xmlns="http://www.w3.org/2000/svg"
   xmlns:sodipodi="http://sodipodi.sourceforge.net/DTD/sodipodi-0.dtd"
   xmlns:inkscape="http://www.inkscape.org/namespaces/inkscape"
   width="47.58466mm"
   height="20.133457mm"
   viewBox="0 0 47.58466 20.133457"
   version="1.1"
   id="svg8"
   inkscape:version="1.0.2 (e86c870879, 2021-01-15, custom)"
   sodipodi:docname="logomotor.svg">
  <defs
     id="defs2" />
  <sodipodi:namedview
     id="base"
     pagecolor="#ffffff"
     bordercolor="#666666"
     borderopacity="1.0"
     inkscape:pageopacity="0.0"
     inkscape:pageshadow="2"
     inkscape:zoom="2.2734995"
     inkscape:cx="132.12633"
     inkscape:cy="49.255777"
     inkscape:document-units="mm"
     inkscape:current-layer="text1164-2-5-7"
     inkscape:document-rotation="0"
     showgrid="false"
     inkscape:window-width="1920"
     inkscape:window-height="1017"
     inkscape:window-x="-8"
     inkscape:window-y="-8"
     inkscape:window-maximized="1"
     fit-margin-top="0"
     fit-margin-left="0"
     fit-margin-right="0"
     fit-margin-bottom="0" />
  <metadata
     id="metadata5">
    <rdf:RDF>
      <cc:Work
         rdf:about="">
        <dc:format>image/svg+xml</dc:format>
        <dc:type
           rdf:resource="http://purl.org/dc/dcmitype/StillImage" />
        <dc:title></dc:title>
      </cc:Work>
    </rdf:RDF>
  </metadata>
  <g
     inkscape:label="Layer 1"
     inkscape:groupmode="layer"
     id="layer1"
     transform="translate(-24.853303,-111.38663)">
    <g
       id="g1564"
       inkscape:export-xdpi="96"
       inkscape:export-ydpi="96">
      <g
         id="g2774"
         transform="matrix(1.3399007,0,0,1.3399007,-151.40234,-105.60369)" />
      <g
         aria-label="ENCENDIENDO CORAZONES"
         transform="scale(1.0902301,0.91723756)"
         id="text1164-2-5-7"
         style="font-style:normal;font-variant:normal;font-weight:bold;font-stretch:condensed;font-size:5.34591px;line-height:0;font-family:Arial;-inkscape-font-specification:'Arial Bold Condensed';text-align:center;letter-spacing:1.16152px;text-anchor:middle;fill:#1f3574;fill-opacity:1;stroke:none;stroke-width:0.222746">
        <path
           id="path1623"
           style="font-style:normal;font-variant:normal;font-weight:bold;font-stretch:condensed;font-size:5.26019px;line-height:0.65;font-family:Arial;-inkscape-font-specification:'Arial Bold Condensed';text-align:center;letter-spacing:1.05833px;word-spacing:-0.00668239px;text-anchor:middle;fill:#1f3574;fill-opacity:1;stroke-width:0.222746"
           d="m 26.648952,137.25274 c -2.550313,0.14141 -3.722024,3.42041 -3.728083,6.03686 h 16.094883 c -0.0061,-2.61645 -1.17777,-5.8955 -3.728083,-6.03686 -0.408977,8.4e-4 -0.867249,0.001 -1.228295,0.003 -0.908199,0.006 -1.837329,0.009 -3.021207,0.006 -0.05285,-1.3e-4 -0.08628,1.3e-4 -0.140352,0 -1.183854,0.003 -2.112381,8.3e-4 -3.020568,-0.006 -0.361058,-9e-4 -0.819293,-0.001 -1.228295,-0.003 z m 17.317671,-9.2136 9.320828,-0.10649 c 7.532376,-0.0784 7.420008,-0.4314 7.662995,13.08469 0,0 1.156066,2.30633 2.935226,2.31071 1.887276,0.004 2.545753,-2.31071 2.545753,-2.31071 C 66.669066,120.89382 63.22685,121.9737 52.589903,121.7827 H 40.083366 c 1.853134,1.78225 2.599842,3.16461 3.883257,6.25633 z m -21.17024,-6.60208 c 0.0061,2.65322 1.209896,5.9898 3.835412,6.04289 2.780297,-0.0355 3.62964,-0.35374 6.406323,0 6.330138,0.10605 5.685916,15.90703 14.856437,15.90703 h 5.428894 c 0,0 2.146215,0.076 2.06837,-2.88217 -0.0837,-3.17849 -2.06837,-3.2581 -2.06837,-3.2581 h -4.946853 c -5.256034,0 -5.455256,-15.80965 -15.338478,-15.80965 z"
           sodipodi:nodetypes="cccccccccccccccccccccscccssc" />
      </g>
    </g>
  </g>
</svg>
